<svg xmlns="http://www.w3.org/2000/svg" preserveAspectRatio="yes" viewBox="0 0 64 64" fill="#9279BA"><g><path d="M47.62 23.596c-.736 0-1.332.596-1.332 1.332v24.327a4.668 4.668 0 0 1-4.663 4.663H12.413a4.668 4.668 0 0 1-4.663-4.663V20.043a4.668 4.668 0 0 1 4.663-4.663h29.212a1.332 1.332 0 0 0 0-2.664H12.413c-4.04 0-7.327 3.287-7.327 7.327v29.212c0 4.04 3.287 7.327 7.327 7.327h29.212c4.04 0 7.327-3.287 7.327-7.327V24.928c0-.735-.596-1.332-1.332-1.332z"/><path d="M57.88 5.915a4.122 4.122 0 0 0-5.824 0l-22.82 22.82c-.03.03-.374.387-.463.588l-3.16 7.1a1.331 1.331 0 0 0 1.759 1.758l7.1-3.16c.199-.089.557-.433.588-.464l22.82-22.819a4.092 4.092 0 0 0 1.206-2.912 4.09 4.09 0 0 0-1.207-2.911zm-1.884 3.939-22.82 22.82-.01.011-3.708 1.651 1.65-3.708.012-.01 22.82-22.82c.55-.55 1.507-.549 2.056.001.274.274.426.639.426 1.027 0 .388-.152.753-.426 1.028z"/></g></svg>