<svg xmlns="http://www.w3.org/2000/svg" preserveAspectRatio="yes" viewBox="0 0 64 64" fill="#9279BA"><path d="M52.19 30.529c-.898 0-1.562.73-1.562 1.627v19.939c0 2.143-1.659 3.965-3.796 3.965H17.755c-2.138 0-4.627-1.822-4.627-3.965V22.922c0-2.149 2.489-4.434 4.627-4.434h16.618c.897 0 1.627-.669 1.627-1.566 0-.904-.724-1.567-1.627-1.567H17.755c-4.275 0-7.755 3.271-7.755 7.561v29.175c0 4.29 3.48 7.096 7.755 7.096h29.077c4.276 0 6.923-2.806 6.923-7.096v-19.93c-.005-.902-.668-1.632-1.565-1.632Zm6.402-17.679-2.382-2.387c-1.812-1.817-4.995-1.817-6.806 0l-4.5 5.296-23.965 22.989v.562l-.021.096-3.015 10.24 2.214 1.98 9.674-3.418.123.025h.474l22.923-24.046 5.281-4.322c1.877-1.877 1.877-5.132 0-7.015ZM22.164 47.396l1.408-4.495 2.811 2.822-4.219 1.673Zm7.081-3.352-4.143-4.152 21.429-21.364 4.011 4.021-21.297 21.495Zm27.082-26.643L53.133 20.6l-4.647-4.663 3.193-3.199c.301-.301.704-.47 1.132-.47.43 0 .831.169 1.133.47l2.378 2.388c.627.627.627 1.647.005 2.275Z"/></svg>