<svg
  xmlns="http://www.w3.org/2000/svg"
  preserveAspectRatio="yes"
  viewBox="0 0 1024 1024"
  style="fill: red"
>
  <path
    d="M469.81 20.53c-143.93 9.2-276.16 80.68-363.17 196.44-59.99 79.91-96.02 183.79-96.59 278.84-.19 26.26 0 28.17 4.6 36.22 10.15 18.02 29.51 26.26 51.17 21.66 14.18-2.87 23.76-9.77 30.28-21.85 4.6-8.43 5.56-12.84 6.9-33.92 2.68-41.01 6.32-63.43 15.14-95.06 29.9-106.17 106.94-197.2 207.94-245.5 55.19-26.45 111.92-39.1 174.97-39.1 66.89 0 122.08 12.46 174.97 39.48 24.91 12.84 57.69 36.03 72.63 51.36l8.43 8.82h-42.93c-46.19.19-51.93 1.15-64.01 10.35-15.52 11.69-20.31 37.95-10.16 55.39 5.75 9.77 14.18 16.87 24.15 20.31 8.82 2.88 215.98 3.07 223.84 0 10.73-4.02 19.55-11.69 24.53-21.46l4.79-9.77v-107.9c0-117.86.19-115.75-11.12-127.64-8.82-9.39-19.16-13.61-33.15-13.8-10.73 0-13.99.77-22.04 5.75-5.75 3.64-11.5 9.39-15.14 15.14l-5.75 9.39-.57 44.85c-.38 24.53-.96 44.65-1.53 44.65-.58 0-7.67-5.75-16.1-12.65C756.5 84.73 672.95 44.48 603.95 30.3c-43.11-8.81-92.94-12.45-134.14-9.77zm449.98 430.25c-9.77 4.98-17.44 13.8-21.66 24.91-1.15 3.07-3.07 18.21-4.02 33.54-3.64 59.6-14.37 101.38-39.1 152.36C799.63 776 693.08 855.72 565.63 878.15c-54.43 9.58-122.46 6.52-178.04-8.05-51.55-13.42-103.87-41.97-137.79-74.93l-9.2-9.01 46.95-.96 46.76-.96 8.24-5.75c17.44-12.26 24.34-30.66 18.78-50.21-3.26-12.26-16.67-25.68-28.56-28.94-6.52-1.92-34.69-2.3-115.95-1.92L109.5 698l-7.28 4.41c-3.83 2.49-9.58 8.62-12.46 13.42l-5.17 9.01-.58 103.49c-.38 71.87 0 106.55 1.53 113.46 6.32 28.75 36.6 43.31 63.05 30.09 12.26-6.13 20.12-16.48 23-29.71 1.15-5.17 2.11-26.83 2.11-48.1v-38.33l10.16 8.43c50.59 43.12 117.86 79.15 181.49 97.36 116.33 33.54 243.97 21.85 351.29-31.81 155.23-77.81 255.46-224.8 271.56-398.43 3.83-40.82 1.73-57.49-8.43-70.72-11.3-14.97-40.24-19.57-59.98-9.79z"
  />
</svg>
