<svg xmlns="http://www.w3.org/2000/svg" xml:space="preserve" viewBox="0 0 1000 1000"><path d="M849.35 11.53c-12.29 3.84-30.53 21.51-33.61 32.65-1.15 4.22-2.11 24.39-2.11 46.86v39.18l-8.06-7.68C736.63 57.05 629.28 16.73 514.06 12.89 342.38 7.32 183.37 90.09 89.08 234.12-16.55 395.8-16.36 609.15 89.65 769.5c70.09 106 179.75 182.44 300.73 209.51 93.71 21.12 195.3 14.59 281.33-18.24 23.62-8.83 67.41-30.54 87.19-43.02 43.59-27.46 92.76-70.86 122.71-108.5 62.22-77.58 97.94-167.84 106.96-268.85 4.04-47.05 0-64.52-18.44-75.86-8.45-5.19-10.75-5.76-25.92-5.76s-17.47.58-25.92 5.76c-6.33 4.03-10.95 9.03-14.98 15.94-5.19 9.41-5.96 12.48-7.3 36.49-3.46 55.12-12.48 94.87-31.88 140.38-80.66 188.58-293.63 284.41-488.16 219.3C279 844.2 198.15 775.26 150.33 684.04c-29.77-56.65-44.17-116.18-44.17-182.05 0-101.01 35.91-192.23 105.24-267.89 30.34-33.22 68.94-61.64 114.65-84.3 47.24-23.43 91.99-35.72 147.1-39.95 87.95-6.91 177.83 20.16 261.75 78.93l18.24 12.67-47.24.96-47.43.96-10.76 7.49c-5.95 4.03-13.06 10.18-15.94 13.44-23.24 27.65-11.71 65.87 24.2 80.27 10.75 4.42 11.14 4.42 115.41 4.42 98.13 0 105.24-.19 114.07-3.65 12.48-4.8 23.81-15.17 29.19-27.08l4.61-9.6v-222l-4.8-9.22c-5.76-11.52-15.94-20.16-29.38-25.16-11.91-4.4-22.66-4.59-35.72-.75z"/></svg>