<svg xmlns="http://www.w3.org/2000/svg" xml:space="preserve" fill="#f00" viewBox="0 0 64 64"><path d="M32.29 14.7206H22.15l5.07-5.07c1.53-1.53 1.53-4.014 0-5.544-1.53-1.53-4.014-1.53-5.544 0l-11.754 11.76c-.186.186-.348.384-.492.6-.066.096-.108.198-.162.3-.066.126-.144.246-.198.378-.054.126-.084.264-.12.396-.03.114-.078.222-.102.336-.102.504-.102 1.026 0 1.536.024.114.066.222.102.336.036.132.072.27.12.396.054.132.132.252.198.378.054.102.102.204.162.3.144.216.306.42.492.6l11.754 11.76c.768.768 1.77 1.146 2.772 1.146 1.002 0 2.01-.384 2.772-1.146 1.53-1.53 1.53-4.014 0-5.544l-5.07-5.07h10.14c8.646 0 15.678 7.032 15.678 15.678s-7.032 15.678-15.678 15.678H12.688c-2.16 0-3.918 1.752-3.918 3.918 0 2.166 1.758 3.918 3.918 3.918H32.29c12.972 0 23.52-10.554 23.52-23.52 0-12.972-10.548-23.52-23.52-23.52z"/></svg>