<svg xmlns="http://www.w3.org/2000/svg" xml:space="preserve" viewBox="0 0 64 64"><path fill="red" d="M52.961 2.6918c-.7374.2304-1.8318 1.2906-2.0166 1.959-.069.2532-.1266 1.4634-.1266 2.8116v2.3508l-.4836-.4608c-4.1364-3.9294-10.5774-6.3486-17.4906-6.579-10.3008-.3342-19.8414 4.632-25.4988 13.2738C1.007 25.748 1.0184 38.549 7.379 48.17c4.2054 6.36 10.785 10.9464 18.0438 12.5706 5.6226 1.2672 11.718.8754 16.8798-1.0944 1.4172-.5298 4.0446-1.8324 5.2314-2.5812 2.6154-1.6476 5.5656-4.2516 7.3626-6.51 3.7332-4.6548 5.8764-10.0704 6.4176-16.131.2424-2.823 0-3.8712-1.1064-4.5516-.507-.3114-.645-.3456-1.5552-.3456-.9102 0-1.0482.0348-1.5552.3456-.3798.2418-.657.5418-.8988.9564-.3114.5646-.3576.7488-.438 2.1894-.2076 3.3072-.7488 5.6922-1.9128 8.4228C49.0082 52.7558 36.23 58.5056 24.5582 54.599 18.74 52.652 13.889 48.5156 11.0198 43.0424c-1.7862-3.399-2.6502-6.9708-2.6502-10.923 0-6.0606 2.1546-11.5338 6.3144-16.0734 1.8204-1.9932 4.1364-3.6984 6.879-5.058 2.8344-1.4058 5.5194-2.1432 8.826-2.397 5.277-.4146 10.6698 1.2096 15.705 4.7358l1.0944.7602-2.8344.0576-2.8458.0576-.6456.4494c-.357.2418-.7836.6108-.9564.8064-1.3944 1.659-.7026 3.9522 1.452 4.8162.645.2652.6684.2652 6.9246.2652 5.8878 0 6.3144-.0114 6.8442-.219.7488-.288 1.4286-.9102 1.7514-1.6248l.2766-.576v-13.32l-.288-.5532c-.3456-.6912-.9564-1.2096-1.7628-1.5096-.7146-.264-1.3596-.2754-2.1432-.045z"/></svg>
