<svg xmlns="http://www.w3.org/2000/svg" viewBox="-28.593 2.27 89.043 59.804"><path d="M-20.034 61.994c-.889.163-2.857.062-3.81-.188-1.152-.3-1.942-.764-2.832-1.667-1.278-1.278-1.917-2.895-1.917-4.774 0-1.254.15-1.868.777-3.121.839-1.717 2.694-3.396 6.717-6.065 2.042-1.354 2.243-1.505 2.657-2.144.225-.337.413-.651.413-.714 0-.062-2.281-.112-5.263-.112h-5.263v-3.134h14.812l-.087.84c-.175 1.617-.79 3.159-1.767 4.437-.928 1.203-2.231 2.306-5.126 4.336-1.83 1.278-2.695 2.042-3.246 2.857-.953 1.378-1.178 2.707-.702 4.236.464 1.503 1.829 2.318 3.659 2.193 1.128-.088 1.893-.476 2.432-1.278.526-.74.915-1.968 1.015-3.171l.075-.914h3.384l-.075.952c-.051.526-.176 1.291-.276 1.704-.288 1.066-1.065 2.695-1.629 3.359-.94 1.115-2.644 2.142-3.948 2.368Zm36.737-8.415c-.426.189-1.102.038-1.453-.313l-.326-.314-.063-19.173-.063-19.174-4.511 4.524c-2.481 2.482-4.662 4.6-4.85 4.7-.939.488-1.98-.113-1.98-1.153 0-.289.752-1.103 4.411-4.788 2.432-2.431 5.301-5.263 6.379-6.291L16.19 9.73l6.228 6.141c3.408 3.371 6.253 6.266 6.303 6.416.126.351.076.815-.1 1.166-.238.501-1.077.701-1.641.413-.151-.075-2.331-2.181-4.85-4.674l-4.575-4.524-.062 19.048c-.062 18.122-.075 19.074-.288 19.4-.125.2-.351.401-.502.463Zm-37.05-29.405-.175.438-1.354-.037-1.353-.038V2.982h3.759l.038 7.557.025 7.545h5.264v2.844l-1.166.076c-1.178.075-2.469.413-3.171.852-.463.275-1.679 1.541-1.679 1.742 0 .075-.088.326-.188.576ZM51.891 2.349c.889-.163 2.857-.062 3.81.188 1.152.3 1.942.764 2.832 1.667 1.278 1.278 1.917 2.895 1.917 4.774 0 1.254-.15 1.868-.777 3.121-.839 1.717-2.694 3.396-6.717 6.065-2.042 1.354-2.243 1.505-2.657 2.144-.225.337-.413.651-.413.714 0 .062 2.281.112 5.263.112h5.263v3.134H45.6l.087-.84c.175-1.617.79-3.159 1.767-4.437.928-1.203 2.231-2.306 5.126-4.336 1.83-1.278 2.695-2.042 3.246-2.857.953-1.378 1.178-2.707.702-4.236-.464-1.503-1.829-2.318-3.659-2.193-1.128.088-1.893.476-2.432 1.278-.526.74-.915 1.968-1.015 3.171l-.075.914h-3.384l.075-.952c.051-.526.176-1.291.276-1.704.288-1.066 1.065-2.695 1.629-3.359.94-1.115 2.644-2.142 3.948-2.368Zm.313 37.82.175-.438 1.354.037 1.353.038v21.555h-3.759l-.038-7.557-.025-7.545H46v-2.844l1.166-.076c1.178-.075 2.469-.413 3.171-.852.463-.275 1.679-1.541 1.679-1.742 0-.075.088-.326.188-.576Z"/></svg>
