<svg xmlns="http://www.w3.org/2000/svg" xml:space="preserve" viewBox="0 0 64 64"><path d="M9.4706 2.91038c-2.3712.3762-4.2654 1.7814-5.2434 3.9138-.5772 1.2546-.7404 1.8564-.8406 3.2868l-.0876 1.0914 1.7436-.0378 1.731-.0378.1506-1.1916c.213-1.6308.5772-2.5464 1.3044-3.2742.6774-.6774 1.1916-.8658 2.3712-.8658 1.167 0 1.731.2136 2.484.9408.8154.8028 1.104 1.6434 1.0158 3.0612-.075 1.2294-.4518 1.9818-1.6056 3.1866-.8406.8904-1.317 1.2672-4.2654 3.2994-2.3208 1.6056-3.5628 2.9106-4.4406 4.6668-.4392.8784-.828 2.3958-.828 3.249v.6648h14.6772v-3.1362H12.431c-4.2024 0-5.2062-.0378-5.2062-.1632 0-.3264.7278-1.305 1.3926-1.869.3762-.3138 1.4928-1.1292 2.4966-1.8066 2.4714-1.6686 3.7506-2.6844 4.5786-3.6006 1.7436-1.9572 2.3334-4.3404 1.6812-6.7614-.5772-2.1576-2.1702-3.7758-4.3404-4.4034-.828-.2502-2.6592-.351-3.5628-.213zm39.0267 8.30496c-.1758.0876-.414.3636-.5268.6024-.213.414-.2256 1.6056-.2256 19.4442v18.993l-4.8048-4.7922c-5.1564-5.1432-5.0184-5.0304-5.8584-4.6038-.201.1002-.4266.3012-.5016.4266-.1632.3264-.1632.966.0126 1.3044.1758.3516 12.294 12.507 12.4698 12.507.075 0 2.9352-2.8098 6.36-6.2346 4.1892-4.2024 6.2592-6.36 6.3096-6.5988.1128-.4518-.1254-1.029-.5646-1.3422-.414-.3012-.765-.3138-1.2294-.075-.1884.1002-2.3958 2.2452-4.9176 4.767l-4.5786 4.5912-.063-19.1934-.0624-19.1934-.3264-.3138c-.3762-.3762-1.0542-.5142-1.4928-.2886zM9.3704 40.9844c-.6522 1.5678-2.4714 2.5842-4.9926 2.7726l-1.041.0876v2.7222H8.606v15.3048h3.888V40.2944H9.6584l-.288.69z" /></svg>
