<svg xmlns="http://www.w3.org/2000/svg" viewBox="0 0 64 64"><path d="M47.918 10.784c-.151.063-.377.264-.502.464-.213.326-.226 1.278-.288 19.399l-.062 19.049-4.575-4.524c-2.519-2.494-4.699-4.599-4.85-4.675-.564-.288-1.403-.087-1.641.414-.176.351-.226.815-.1 1.166.05.15 2.895 3.045 6.303 6.416l6.228 6.14 1.943-1.867c1.078-1.028 3.947-3.86 6.379-6.291 3.659-3.684 4.411-4.499 4.411-4.787 0-1.04-1.041-1.642-1.98-1.153-.188.1-2.369 2.218-4.85 4.699l-4.511 4.524-.063-19.173-.063-19.174-.326-.313c-.351-.352-1.027-.502-1.453-.314ZM11.687 61.052c1.303-.225 3.008-1.253 3.948-2.368.564-.664 1.341-2.293 1.629-3.359.1-.413.225-1.178.276-1.704l.075-.952h-3.384l-.075.914c-.101 1.203-.489 2.432-1.016 3.171-.538.802-1.303 1.19-2.431 1.278-1.83.125-3.195-.69-3.659-2.193-.477-1.529-.251-2.857.702-4.236.551-.814 1.416-1.579 3.246-2.857 2.895-2.03 4.198-3.133 5.126-4.336.977-1.278 1.591-2.82 1.767-4.436l.087-.84H3.165v3.133h5.264c2.982 0 5.263.05 5.263.113 0 .062-.188.376-.414.714-.413.639-.614.789-2.656 2.143-4.023 2.669-5.878 4.349-6.717 6.065-.627 1.254-.777 1.867-.777 3.121 0 1.88.639 3.496 1.917 4.775.89.902 1.68 1.366 2.832 1.666.953.251 2.92.351 3.81.188Zm-.777-37.293c.1-.251.188-.501.188-.577 0-.2 1.215-1.466 1.679-1.742.702-.438 1.993-.777 3.171-.852l1.165-.075v-2.845H11.85l-.025-7.544-.038-7.557H8.028v21.554l1.353.038 1.354.038.175-.438Z"/></svg>