<svg xmlns="http://www.w3.org/2000/svg" preserveAspectRatio="none" viewBox="0 0 20 30" fill="#9279BA"><defs/><path d="M20.04 12.05q.04-.37-.2-.68-.26-.28-.65-.28H2.24q-.4 0-.64.28-.25.3-.2.68l1.84 15.07q.16 1.33 1.17 2.22 1 .9 2.34.9h7.93q1.34 0 2.34-.9 1-.9 1.17-2.21l1.85-15.08M6.74 28.52q-.69 0-1.2-.46-.52-.46-.6-1.14L3.2 12.79h15.03L16.5 26.92q-.08.69-.6 1.14-.51.46-1.2.46H6.74zM19.31 5.47q.34-.1.52-.4.17-.3.08-.65l-.21-.78q-.37-1.32-1.57-2-1.2-.69-2.53-.32L2.5 4.9q-.65.17-1.17.58-.52.4-.84.98-.33.58-.41 1.23Q0 8.35.17 9l.21.77q.1.35.4.52.2.12.42.12.08 0 .23-.03l17.88-4.91m-3.25-2.5q.63-.18 1.2.14.58.31.78.94L1.8 8.5q-.15-.62.17-1.18.34-.59.98-.76l13.1-3.6z"/><path d="M11.35 15.02q0-.26-.19-.45-.18-.19-.44-.19-.27 0-.45.19-.2.19-.2.45V26.1q0 .27.2.46.18.18.45.18.26 0 .44-.18.2-.2.2-.46V15.02zM6.75 14.54q-.2-.18-.46-.15-.26.01-.43.22-.18.2-.16.46l.88 11.07q.02.25.2.42.19.17.43.17h.06q.26-.02.43-.22.17-.2.16-.47l-.88-11.07q-.02-.27-.23-.43zM15.73 15.07q.02-.26-.16-.46-.17-.2-.43-.22-.26-.03-.46.15-.2.16-.23.43l-.88 11.07q-.01.26.16.47.18.2.43.22h.05q.25 0 .44-.17.18-.17.2-.42l.88-11.07zM11.41.35q-.86-.5-1.82-.23l-2.53.7q-.96.26-1.45 1.12-.49.86-.23 1.82l.32 1.16q.09.34.4.51.2.11.42.11.13 0 .23-.03l5.5-1.5q.35-.1.52-.4.18-.32.09-.66l-.32-1.15Q12.28.84 11.4.35m-1.18 1.39q.22 0 .41.14.2.14.25.36l.1.34-3.87 1.06-.1-.33q-.07-.28.07-.52.14-.25.42-.33l2.54-.7q.08-.02.18-.02z"/></svg>